<?xml version="1.0" encoding="utf-8"?>
<!-- Generator: Adobe Illustrator 23.0.1, SVG Export Plug-In . SVG Version: 6.00 Build 0)  -->
<svg version="1.1" id="Layer_1" xmlns="http://www.w3.org/2000/svg" xmlns:xlink="http://www.w3.org/1999/xlink" x="0px" y="0px"
	 viewBox="0 0 1024 1024" style="enable-background:new 0 0 1024 1024;" xml:space="preserve">
<style type="text/css">
	.st0{fill:#FFFFFF;}
	.st1{fill:#183883;}
</style>
<g>
	<path class="st0" d="M863.5,618.8c-6.6,3.4-9.4-7.6-9.4-7.6l-0.6-3.3c-0.1-0.5-0.1-0.9-0.2-1.4c-0.8-7.4-1.4-14.8-2.2-22.2
		c-0.6-6.5-1.4-12.9-2-19.4c-0.6-6.6-1.2-13.1-1.8-19.7c-0.7-7.8-1.5-15.7-2.3-23.5c-0.6-6.1-1.3-12.3-1.9-18.4
		c-0.7-6.7-1.3-13.5-2-20.2c-0.8-8.2-1.8-16.3-2.6-24.5c-0.8-7.7-1.4-15.4-2.2-23c-0.8-8.2-1.7-16.4-2.5-24.5
		c-0.8-7.6-1.2-11-1.9-18.6c-0.1-0.8-0.1-0.9,0.1-2.1c0,0,0.4-1.1,0.4-1.1c3-6.7,9.1-6.4,13.8-7.3c6.8-1.3,13.7-1.9,20.6-2.6
		c8.7-1,17.5-1.8,26.3-2.6c5.9-0.7,9.5,0.3,10.7,1.5c-0.1-1.3-0.4-4.2-0.5-5.6c-0.6-5.8-3.5-10.2-10-10.2c-2.9,0-5.8,0.2-8.8,0.4
		c-5.6,0.3-11.1,0.6-16.7,1c-6,0.5-11.9,1-17.9,1.6c-5.9,0.6-11.7,1.3-17.6,1.7c-7.2,0.6-12.5,8.4-12.2,14.7
		c0.3,5.3,0.9,10.6,1.5,15.9c0.9,8,1.9,16,2.7,24c1,9.3,1.8,18.6,2.8,27.9c1,9.1,2.1,18.2,3,27.3c1,9.7,1.7,19.5,2.6,29.2
		c1.1,11.9,2.4,23.8,3.5,35.8c1.3,13.6,2.5,27.1,3.7,40.7c0.9,9.6,1.7,19.3,2.5,28.9c0.8,9,7.3,15.1,15.2,15.4
		c1.4,0,2.9,0.3,4.1-0.2c4.1-1.7,8.2-3.3,12.1-5.5c13.8-7.6,27.6-15.3,41.2-23.3c0.9-0.5,1.7-1.1,2.4-1.6
		C906,603.1,863.5,618.8,863.5,618.8z M884.4,368.9c0.6,0,1.2,0.7,1.3,1.6c0,0.9-0.4,1.7-1.1,1.7s-1.2-0.7-1.3-1.6
		C883.3,369.7,883.8,369,884.4,368.9z M874.8,371.6l0.1,0.7l-15.4,1.8l-0.1-0.7L874.8,371.6z"/>
	<path class="st0" d="M932.6,400.7c0,0.1,0,0.1,0,0.2c-1.6,3.5-1.6,3.5-5.2,2.2c-1.5-0.5-2.9-0.9-4.4-1.5c-1.1-0.4-1.6-0.1-1.9,1
		c-3.6,10.5-8.8,20.3-14.9,29.5c-1.9,2.9-4.7,4.5-7.4,6.4c-1.6,1.2-3.4,2.1-4.8,3c3.9-5.6,8.2-11.3,11.9-17.2
		c5.3-8.3,9.5-17.2,12.2-26.7c0.3-0.9,0.6-1.4,1.6-1.2c4.3,1.2,8.6,2.5,13,3.7C932.6,400.4,932.6,400.6,932.6,400.7z"/>
	<path class="st0" d="M909.3,472.2c-1.2,1.4-2.5,1.1-3.9,0.6c-6.9-2.8-13-6.7-18.7-11.4c-2.8-2.2-5.3-4.7-8.1-7.2
		c2.7-2,5.2-3.8,7.9-5.7c0.7,1.1,1.5,2.2,2.3,3.5c-1,0.9-2,1.7-3.1,2.6C892.6,461.9,902.1,465.5,909.3,472.2z"/>
	<path class="st0" d="M877.6,464.8c1.1-1,2-1.9,3-2.7c0.2-0.2,0.8-0.2,1.1,0c4.5,3.3,8.9,6.7,13.2,10
		C893.3,472.6,882.1,468,877.6,464.8z"/>
	<path class="st0" d="M962.7,461.1l-8.6-14.1l-45.6,27.8l-2.7-4.6l11.3,18.7c1.4,2.2,4.3,3,6.5,1.6l37.5-22.9
		C963.4,466.3,964.1,463.3,962.7,461.1z"/>
	<g>
		
			<rect x="943.6" y="455.4" transform="matrix(0.8536 -0.5209 0.5209 0.8536 -98.7777 560.8008)" class="st1" width="9.8" height="1.5"/>
		
			<rect x="938.4" y="454.2" transform="matrix(0.8536 -0.5209 0.5209 0.8536 -98.6127 558.9754)" class="st1" width="13.9" height="1.5"/>
		
			<rect x="919" y="464.1" transform="matrix(0.8536 -0.5209 0.5209 0.8536 -106.1614 551.9519)" class="st1" width="20.2" height="1.5"/>
		
			<rect x="914" y="473.4" transform="matrix(0.8536 -0.5209 0.5209 0.8536 -112.4997 548.0428)" class="st1" width="9.8" height="1.5"/>
		
			<rect x="923.9" y="467.5" transform="matrix(0.8536 -0.5209 0.5209 0.8536 -107.9396 552.2826)" class="st1" width="9.8" height="1.5"/>
		
			<rect x="919.8" y="482.2" transform="matrix(0.8536 -0.5209 0.5209 0.8536 -116.2093 552.3516)" class="st1" width="9.8" height="1.5"/>
		
			<rect x="929.7" y="476.2" transform="matrix(0.8536 -0.5209 0.5209 0.8536 -111.6492 556.5914)" class="st1" width="9.8" height="1.5"/>
		
			<rect x="933.7" y="461.5" transform="matrix(0.8536 -0.5209 0.5209 0.8536 -103.3864 556.5159)" class="st1" width="9.8" height="1.5"/>
	</g>
	<polygon class="st0" points="858.1,489.1 864.2,532.4 846.2,534.9 841.9,491.5 	"/>
	<path class="st0" d="M588.8,619.6H581v44h-6.8v-20.2h-10v-3.4c-2.2,5.2-6.4,8.6-12.6,10.1l15.9,13.5h-10.5l-24.5-21l4.5-4.9
		c3,2.7,4.7,4.1,4.9,4.2c1.9,1.4,3.9,2,5.8,2c3.4,0,6.1-1.1,8.2-3.3c2-2.2,3.1-5.1,3.1-8.5c0-5.7-2.3-9.9-6.9-12.4h-22.9v-4.7h59.7
		V619.6z M574.2,619.6H561c3.1,3,4.7,7.2,4.7,12.4c0,1.9-0.2,3.7-0.7,5.5h9.2V619.6z"/>
	<path class="st0" d="M635.6,619.5h-7.9v44.1h-6.8v-8.8c-3.2,2.8-7,4.1-11.3,4.1c-4.7,0-8.7-1.6-12.1-4.9c-3.4-3.3-5.1-7.2-5.1-11.9
		s1.7-8.7,5.1-12.3c3.4-3.5,7.4-5.3,12.1-5.3c3.2,0,6.4,1,9.4,3v9.5c-2-3.8-5-5.8-9.2-5.8c-0.9,0-1.8,0.1-2.7,0.3l11.8,15.4
		c1.3-2,2-3.4,2-4.1v-23.3h-32.2v-4.5h46.8V619.5z M614.1,651.3l-12.7-16.2c-1.5,2-2.2,4.1-2.2,6.6c0,2.9,1,5.4,3,7.6
		c2,2.2,4.4,3.2,7.2,3.2C611,652.5,612.6,652.1,614.1,651.3z"/>
	<path class="st0" d="M615.9,615.4c-2.7-1.5-5.2-3.7-7.4-6.8c-2.6-3.6-4.6-5.8-5.8-6.8c-2.8-2.2-6.7-3.5-11.8-3.9l4.9-4.3
		c4.9,0.6,8.8,2.3,11.6,5.2c0.7,0.7,3.6,3.8,8.6,9.3c-0.9-4.2-2.1-7.6-3.7-10c-1.8-2.7-4.4-5.1-8-7.2l6.3-1.8c3.4,2,6,4.7,7.8,8.2
		c0.9,1.8,2,4.9,3,9.1c0.9,3.6,1.9,5.9,2.9,7.1C622.5,613.6,619.7,614.3,615.9,615.4z"/>
	<path class="st0" d="M645.6,658.3c0,3.2-1.7,4.9-5.2,4.9c-1.5,0-2.7-0.5-3.7-1.4c-1-0.9-1.5-2.2-1.5-3.6c0-1.5,0.5-2.7,1.5-3.6
		c1-0.9,2.2-1.4,3.7-1.4c1.5,0,2.8,0.5,3.8,1.5C645.1,655.5,645.6,656.7,645.6,658.3z"/>
	<path class="st0" d="M718.3,619.6h-7.9v44h-6.8v-20.2h-10v-3.4c-2.2,5.2-6.4,8.6-12.6,10.1l15.9,13.5h-10.5l-24.5-21l4.5-4.9
		c3,2.7,4.7,4.1,4.9,4.2c1.9,1.4,3.9,2,5.8,2c3.4,0,6.1-1.1,8.2-3.3c2-2.2,3.1-5.1,3.1-8.5c0-5.7-2.3-9.9-6.9-12.4h-22.9v-4.7h59.7
		V619.6z M703.7,619.6h-13.1c3.1,3,4.7,7.2,4.7,12.4c0,1.9-0.2,3.7-0.7,5.5h9.2V619.6z"/>
	<path class="st0" d="M768.5,619.6h-8v44h-7v-7.1c-3.6,2.9-8.3,4.3-14.2,4.3c-5,0-9.2-1.5-12.6-4.4c-3.6-3.1-5.5-7.1-5.5-12
		c0-4.5,1.7-8.4,5.1-11.5c-1.7-2.2-2.5-4.6-2.5-7.3c0-2.2,0.5-4.1,1.6-6h-7.3v-4.7h8.2v3.3c2.4-3,5.4-4.5,9.1-4.5
		c2.8,0,5.2,0.9,7.4,2.7c2.2,1.8,3.5,4,4.1,6.7h-6.7c-1.1-2-2.6-3-4.6-3c-1.5,0-2.8,0.6-4,1.7c-1.2,1.2-1.8,2.5-1.8,4
		c0,1.3,0.5,2.5,1.4,3.6c2-0.8,4.1-1.2,6.3-1.2c2,0,3.8,0.3,5.7,1v7.6c-1.8-1.3-3.7-2-5.7-2c-2.6,0-4.9,1-6.9,3.1
		c-2,2.1-3,4.4-3,7.1c0,3.1,1.1,5.5,3.4,7.3c2.3,1.7,5,2.6,8.2,2.6c7,0,11.7-2.9,14.2-8.8v-26.4h-4.7v-4.7h19.6V619.6z"/>
	<path class="st0" d="M748.8,615.4c-2.7-1.5-5.2-3.7-7.4-6.8c-2.6-3.6-4.6-5.8-5.8-6.8c-2.8-2.2-6.7-3.5-11.8-3.9l4.9-4.3
		c4.9,0.6,8.8,2.3,11.6,5.2c0.7,0.7,3.6,3.8,8.6,9.3c-0.9-4.2-2.1-7.6-3.7-10c-1.8-2.7-4.4-5.1-8-7.2l6.3-1.8c3.4,2,6,4.7,7.8,8.2
		c0.9,1.8,2,4.9,3,9.1c0.9,3.6,1.9,5.9,2.9,7.1C755.3,613.6,752.5,614.3,748.8,615.4z"/>
	<path class="st0" d="M767.3,605.5c0,1.5-0.5,2.7-1.4,3.6c-0.9,0.9-2.2,1.4-3.6,1.4c-3.5,0-5.3-1.7-5.3-5.2c0-1.5,0.5-2.7,1.4-3.7
		c0.9-1,2.2-1.5,3.6-1.5c1.6,0,2.8,0.5,3.8,1.5C766.8,602.7,767.3,604,767.3,605.5z"/>
	<g>
		<path class="st0" d="M408.9,433.5H346V508h-30.9v-74.4h-45.8h-17.1H173h-18.1H92.5c-12.7,0-22.9,3.9-30.4,11.6
			c-7.4,7.6-11.2,17.9-11.2,30.6v46.7c0,13.3,3.8,23.8,11.2,31.3c7.4,7.4,18,11.2,31.3,11.2h61.5h18h79.4h16.7H346h12.3h99.8v-57
			h-49.2V433.5z M93.4,550.4c-9.4,0-16.4-2.3-21-7c-4.6-4.6-7-11.6-7-21v-46.7c0-8.9,2.3-15.7,7-20.5c4.7-4.8,11.4-7.2,20-7.2h62.5
			v27.7H97.6v46.7h57.3v28H93.4z M172.9,550.4V508l0,0l0.1-17.7l0,0V448h79.2v27.7h-50.8v11.8h50.8v23.2h-50.8v11.8h50.8v28H172.9z
			 M268.9,550.4v-25.3h0.1v-34.9h0.3V448h31.3v74.4H346v28H268.9z M443.6,522.5v28h-83.1V448h33.9v74.4H443.6z"/>
	</g>
	<rect x="504" y="475.7" class="st0" width="31.4" height="17.8"/>
	<rect x="608.6" y="475.7" class="st0" width="34.9" height="12.7"/>
	<g>
		<path class="st0" d="M747.2,433.5l-9.8,20l-9.8-20h-74.9h-1.8h-51.1c-10.8,0-19.8,3.2-26.6,9.5c-0.1-0.1-0.1-0.2-0.2-0.2
			c-6.1-6.1-15-9.2-26.3-9.2H458v131.4h60.9v-33.3h28.4c5.6,0,10.6-0.8,15-2.5v35.8h60.8h5.9h61v-78.8l16.3,31.4v47.5h61.9v-47.5
			l50.7-83.9H747.2z M567.7,497.1c0,6.7-1.7,11.7-5,15c-3.3,3.3-8.5,4.9-15.3,4.9h-42.9v33.3h-31.9V447.9h74.2c7.4,0,12.7,1.7,16,5
			c3.3,3.3,5,8.6,5,16V497.1z M675.6,550.4h-32v-41.2h-34.9v41.2h-31.8v-81.2c0-6.6,2-11.7,6.1-15.5c4.1-3.8,9.7-5.7,16.8-5.7h52.9
			c7.1,0,12.7,1.9,16.8,5.7c4.1,3.8,6.1,8.9,6.1,15.5V550.4z M753.8,513.4v37h-32.9v-37L681.4,448h37.1l18.8,38.5l18.9-38.5h37
			L753.8,513.4z"/>
		<rect x="504" y="475.7" class="st0" width="31.4" height="17.8"/>
	</g>
	<path class="st0" d="M928.2,457.7l-0.1-0.1c-2.5-3.6-7.7-4.2-11.6-1.4c0,0-8.3,6.6-14.5,11.1c-6.2,4.4-13.9,7.2-21.2,12.4
		c-7.2,5.2,7.1,25.2,15.4,19.3c8.3-5.9,5-14.3,13.8-20.5c8.7-6.2,15.9-9.2,15.9-9.2C929.7,466.3,930.7,461.2,928.2,457.7z
		 M927.1,462.7c-0.2,0.7-0.4,1.1-0.4,1.1l-6.5,4l-6.3-7.5l0.1,0l0,0l6-4c0,0,4.5-1.1,6.5,1.8C927.5,460,927.3,461.7,927.1,462.7z"/>
	<path class="st0" d="M913.8,460.3l6-4c0,0,4.2-1,6.3,1.6l25.4-15.5l-0.5-0.8c-1.4-2.2-4.3-3-6.5-1.6l-37.5,22.9
		c-2.2,1.4-3,4.3-1.6,6.5l0.5,0.8l10.7-6.5L913.8,460.3z"/>
	<g>
		<path class="st0" d="M967.7,415.6c-7.4-7.8-16.4-13.6-26.3-17.9c-0.9-0.4-1.8-0.6-2.6-0.9c-0.2,0.1-0.3,0.2-0.3,0.2
			c-0.1,0.3-0.3,0.5-0.4,0.8C927,419,912,436.4,890.1,447.5c0.3,0.4,0.6,1,1,1.5c5,7,10.9,13.3,17.9,18.3c0.1,0.1,0.3,0.2,0.4,0.3
			l4.1-2.5c-0.7-0.5-1.5-1.2-2.7-2.1c-5.2-3.9-9.7-8.6-13.9-13.8c19.4-11.3,33.2-27.6,44.3-46.9c2.1,1.1,4.1,2.1,6.1,3.3
			c6.5,3.8,12.6,8.1,17.8,13.6c2.2,2.4,2.2,2.4,0.6,5.1c-3.2,5.4-7.3,10-11.7,14.4c-1.5,1.5-3.1,3-4.6,4.4l2.2-1.4l2.2,3.6
			c5.8-5.3,11.2-11,15.2-17.9C972.9,420.9,973.4,421.7,967.7,415.6z"/>
	</g>
	<path class="st0" d="M923.8,491.1c-2.2,1.3-5,0.7-6.4-1.4c-2.1,0.7-4.3,1.1-6.7,1.1c-8.6,0.2-15.2-17.3-15.2-17.3
		c-9.8-7.1-28.4,24.1-28.4,24.1l-23.8,0.6l3.4,30.5c0,0,1.6,0.6,35.8-6.7c8-3.5,45.4-7.1,52.8-15.2c4.4-13.7,26.3-25.2,19.7-34.8
		L923.8,491.1z"/>
</g>
</svg>
